<svg t="1699025133878" class="icon" viewBox="0 0 1024 1024" version="1.1" xmlns="http://www.w3.org/2000/svg" p-id="2835" width="200" height="200"><path d="M797 826.1c0 1.3-0.8 2.4-1.8 2.4H273c-1 0-1.8-1.1-1.8-2.4 0-1.3 0.8-2.4 1.8-2.4h522.2c1.1 0 1.8 1.1 1.8 2.4zM950.4 580h-95.6c1.2-9.7 1.9-19.5 1.9-29.5 0-130.7-105.9-236.6-236.7-236.6-130.7 0-236.6 106-236.6 236.6 0 10 0.7 19.9 1.9 29.5H73.6c-5.3 0-9.6 4.6-9.6 10.3 0 5.7 4.3 10.4 9.6 10.4h876.7c5.3 0 9.6-4.6 9.6-10.4 0.1-5.7-4.2-10.3-9.5-10.3zM615 281.4c4.4 0 8-2.5 8-5.7v-69.6c0-3.1-3.6-5.7-8-5.7s-8 2.5-8 5.7v69.6c0 3.2 3.6 5.7 8 5.7z m184.6 52.3c-2.2 2.2-6.6 1.5-9.7-1.7-3.2-3.1-3.9-7.5-1.7-9.7l49.2-49.2c2.2-2.2 6.6-1.5 9.7 1.7 3.1 3.1 3.9 7.5 1.7 9.7l-49.2 49.2z m75.2 145.9c-3.1 0.5-6.2-2.6-6.9-7-0.7-4.4 1.1-8.4 4.2-8.9l68.7-11.7c3.1-0.5 6.2 2.6 6.9 7 0.7 4.4-1.1 8.3-4.2 8.9l-68.7 11.7z m-578.4-14.7c-2.8-1.4-3.5-5.7-1.6-9.7 2-4 5.8-6.1 8.6-4.7l62.6 30.6c2.8 1.4 3.5 5.7 1.6 9.7-2 4-5.8 6.1-8.6 4.7l-62.6-30.6z m147.9-120.3L395 279.5c-2.2-2.9-1.1-7.5 2.4-10.1 3.5-2.7 8.2-2.5 10.4 0.4l49.2 65.1c2.2 2.9 1.1 7.5-2.4 10.1-3.4 2.7-8.1 2.5-10.3-0.4zM230 340.8c-13.5-98.9 81.7-86.6 81.7-86.6-0.8-26.1 28.3-61.3 69.8-58.7 22.4 1.4 37.5 15.3 37.5 15.3-97.2-3-84.6 52.2-85.3 61.2-0.6 9-15.7 7-15.7 7-78.4-21-88 61.8-88 61.8z m-113.7 21.4c-23.4-48.2 27.2-57.9 27.2-57.9-4.8-13.2 4.1-36 25.7-41.6 11.6-3.1 21.7 1.5 21.7 1.5-50.1 14.8-34.4 40.8-33.2 45.5 1.2 4.7-6.9 6.2-6.9 6.2-43.5 2.5-34.5 46.3-34.5 46.3z m545.5 284c0 2-0.8 3.6-1.9 3.6H107.3c-1 0-1.9-1.6-1.9-3.6 0-1.9 0.8-3.5 1.9-3.5h552.6c1.1 0 1.9 1.6 1.9 3.5zM894 679.4c0 1.9-0.8 3.5-1.9 3.5H339.5c-1.1 0-1.9-1.6-1.9-3.5 0-2 0.8-3.5 1.9-3.5h552.6c1.1 0 1.9 1.6 1.9 3.5z m-247.5 50.2c0 1.3-0.8 2.4-1.8 2.4H122.5c-1 0-1.8-1.1-1.8-2.4 0-1.3 0.8-2.4 1.8-2.4h522.2c1-0.1 1.8 1 1.8 2.4z" p-id="2836" fill="#95e49a"></path></svg>